<svg width="14" height="14" viewBox="0 0 14 14" fill="none" xmlns="http://www.w3.org/2000/svg">
<path fill-rule="evenodd" clip-rule="evenodd" d="M13.75 0.8125C13.75 0.663316 13.6907 0.520242 13.5852 0.414753C13.4797 0.309263 13.3367 0.25 13.1875 0.25H6.43748C6.28829 0.25 6.14522 0.309263 6.03973 0.414753C5.93424 0.520242 5.87498 0.663316 5.87498 0.8125C5.87498 0.961684 5.93424 1.10476 6.03973 1.21025C6.14522 1.31574 6.28829 1.375 6.43748 1.375H11.8296L0.414228 12.7892C0.361929 12.8415 0.320443 12.9036 0.292139 12.972C0.263835 13.0403 0.249268 13.1135 0.249268 13.1875C0.249268 13.2615 0.263835 13.3347 0.292139 13.403C0.320443 13.4714 0.361929 13.5335 0.414228 13.5858C0.466527 13.638 0.528615 13.6795 0.596947 13.7078C0.665279 13.7361 0.738516 13.7507 0.812478 13.7507C0.88644 13.7507 0.959678 13.7361 1.02801 13.7078C1.09634 13.6795 1.15843 13.638 1.21073 13.5858L12.625 2.17037V7.5625C12.625 7.71168 12.6842 7.85476 12.7897 7.96025C12.8952 8.06574 13.0383 8.125 13.1875 8.125C13.3367 8.125 13.4797 8.06574 13.5852 7.96025C13.6907 7.85476 13.75 7.71168 13.75 7.5625V0.8125Z" fill="#B7926A"/>
</svg>
